<?xml version="1.0" encoding="UTF-8"?>
<svg width="12px" height="15px" viewBox="0 0 12 15" version="1.1" xmlns="http://www.w3.org/2000/svg" xmlns:xlink="http://www.w3.org/1999/xlink">
    <!-- Generator: Sketch 57.1 (83088) - https://sketch.com -->
    <title>Combined Shape</title>
    <desc>Created with Sketch.</desc>
    <g id="Page-1" stroke="none" stroke-width="1" fill="none" fill-rule="evenodd">
        <g id="Group-4-Copy" transform="translate(-256.000000, -151.000000)">
            <rect id="Background" stroke="#EDEFF1" fill="#FFFFFF" x="0" y="0" width="350" height="196.310881"></rect>
            <g id="Group-2" transform="translate(136.000000, 149.000000)" fill="#A4A7A8" font-family="OpenSans-SemiBold, Open Sans" font-size="12" font-weight="500" letter-spacing="-0.421212">
                <text id="8.5k-comments">
                    <tspan x="22.25" y="13">8.5k comments</tspan>
                </text>
            </g>
            <g id="Group-3" transform="translate(256.000000, 149.000000)" fill="#A4A7A8" fill-rule="nonzero">
                <path d="M10.5612245,5.63636364 L10.0537135,16.2755942 C10.0366422,16.680473 9.70114054,17 9.29313206,17 L9.29313206,17 L2.18645977,17 C1.7784513,17 1.44294968,16.680473 1.42587835,16.2755942 L1.42587835,16.2755942 L0.918367347,5.63636364 L10.5612245,5.63636364 Z M8.15116751,7.97193723 L7.65661738,7.97193723 C7.48583003,7.97193723 7.34740784,8.10943423 7.34740784,8.27896116 L7.34740784,8.27896116 L7.34740784,14.3574025 C7.34740784,14.5270397 7.48590409,14.6644264 7.65661738,14.6644264 L7.65661738,14.6644264 L8.15116751,14.6644264 C8.32195486,14.6644264 8.46037705,14.5269662 8.46037705,14.3574025 L8.46037705,14.3574025 L8.46037705,8.27896116 C8.46037705,8.10939745 8.32184377,7.97193723 8.15116751,7.97193723 L8.15116751,7.97193723 Z M5.98707098,7.97193723 L5.49252086,7.97193723 C5.32177053,7.97193723 5.18334834,8.10943423 5.18334834,8.27896116 L5.18334834,8.27896116 L5.18334834,14.3574025 C5.18334834,14.5270397 5.32180756,14.6644264 5.49252086,14.6644264 L5.49252086,14.6644264 L5.98707098,14.6644264 C6.15785834,14.6644264 6.2962435,14.5269662 6.2962435,14.3574025 L6.2962435,14.3574025 L6.2962435,8.27896116 C6.2962435,8.10939745 6.15774724,7.97193723 5.98707098,7.97193723 L5.98707098,7.97193723 Z M3.82297445,7.97193723 L3.3283873,7.97193723 C3.15763697,7.97193723 3.01921478,8.10943423 3.01921478,8.27896116 L3.01921478,8.27896116 L3.01921478,14.3574025 C3.01921478,14.5270397 3.157674,14.6644264 3.3283873,14.6644264 L3.3283873,14.6644264 L3.82297445,14.6644264 C3.99372478,14.6644264 4.13214697,14.5269662 4.13214697,14.3574025 L4.13214697,14.3574025 L4.13214697,8.27896116 C4.13214697,8.10939745 3.99368775,7.97193723 3.82297445,7.97193723 L3.82297445,7.97193723 Z M7.342721,2 C7.43059228,2 7.50179832,2.07060805 7.50179832,2.15765958 L7.50179832,2.15765958 L7.50179832,2.7706459 L10.7733223,2.7706459 C11.0366036,2.7706459 11.25,2.98217708 11.25,3.24311193 L11.25,3.24311193 L11.25,4.72727273 L0,4.72727273 L0,3.24307531 C0,2.98214046 0.213396409,2.77060928 0.476677692,2.77060928 L0.476677692,2.77060928 L3.74823863,2.77060928 L3.74823863,2.15765958 C3.74823863,2.07060805 3.81944467,2 3.907279,2 L3.907279,2 Z" id="Combined-Shape"></path>
            </g>
        </g>
    </g>
</svg>