<?xml version="1.0" encoding="UTF-8"?>
<svg width="18px" height="15px" viewBox="0 0 18 15" version="1.1" xmlns="http://www.w3.org/2000/svg" xmlns:xlink="http://www.w3.org/1999/xlink">
    <!-- Generator: Sketch 57.1 (83088) - https://sketch.com -->
    <title>Path</title>
    <desc>Created with Sketch.</desc>
    <g id="Page-1" stroke="none" stroke-width="1" fill="none" fill-rule="evenodd">
        <g id="Group-4-Copy" transform="translate(-136.000000, -151.000000)" fill="#A4A7A8" fill-rule="nonzero">
            <g id="Group-2" transform="translate(136.000000, 149.000000)">
                <path d="M15.762931,2 L1.48706897,2 C0.677508621,2 0,2.66312663 0,3.45614103 L0,13.0666718 C0,13.8596863 0.677508621,14.5228129 1.48706897,14.5228129 L5.52535345,14.5228129 L4.53704741,13.5649633 C4.42016379,13.4516755 4.41927155,13.2673281 4.53496552,13.1528754 C4.65065948,13.0387139 4.838625,13.037549 4.95580603,13.1508368 L6.15795259,14.3157496 C6.16003448,14.3177882 6.16092672,14.3209917 6.16300862,14.3230303 C6.16509052,14.3250689 6.16776724,14.3259426 6.16984914,14.3279812 L8.625,17 L11.0807457,14.3282724 C11.0899655,14.3183707 11.1021595,14.313711 11.1122716,14.3052654 L12.3031164,13.151128 C12.4202974,13.0381315 12.6082629,13.0392964 12.7239569,13.1531666 C12.8393534,13.2676193 12.8384612,13.4519668 12.721875,13.5652545 L11.7332716,14.5231041 L15.762931,14.5231041 C16.5724914,14.5231041 17.25,13.8599775 17.25,13.0669631 L17.25,3.45643226 C17.25,2.66341785 16.5724914,2 15.762931,2 Z" id="Path"></path>
            </g>
        </g>
    </g>
</svg>